<svg viewBox="0 0 300 58" fill="none" xmlns="http://www.w3.org/2000/svg">
  <path d="m143.466 28.282-3.927 4.09h3.279v3.697c0 2.142-.583 4.088-2.724 4.088-2.142 0-2.609-1.868-2.609-4.01v-14.6c0-1.907.157-3.972 2.414-3.972 2.181 0 2.336 1.792 2.336 3.778v2.57h6.813v-2.025c0-5.49-2.257-9.228-9.227-9.228-7.202 0-9.461 4.244-9.461 10.94v10.591c0 6.502 2.104 10.9 8.643 10.9 2.765 0 4.244-1.284 5.1-3.076l.391 2.61h4.593V28.281h-5.621Zm108.482-15.184h6.969v12.888l5.295-12.888h6.814l-5.84 14.25 6.112 17.286h-7.086l-4.555-13.938-.74 1.246v12.692h-6.969V13.098Zm-12.886 13.393c2.92 0 3.776-1.635 3.776-4.438 0-2.686-.818-4.282-3.465-4.282h-2.258v8.72h1.947Zm-8.916-13.393h8.682c6.346 0 10.473 1.714 10.473 8.332 0 3.894-.74 6.463-3.854 7.943l4.321 15.261h-7.203l-3.464-14.132h-1.986v14.132h-6.969V13.098Zm-7.514 0h-7.943l-5.956 31.536h6.579l1.09-6.657.623-4.165 1.674-12.304 1.675 12.304-3.972 4.165h4.634l1.051 6.657h6.424l-5.879-31.536Zm-21.92 13.277c2.57 0 3.037-1.363 3.037-4.244 0-2.375-.272-4.127-3.076-4.127h-2.297v8.371h2.336Zm-9.305-13.277h10.59c5.645 0 8.293 3.31 8.293 9.15 0 7.28-4.01 8.993-9.111 8.993h-2.803v13.393h-6.969V13.098Zm-19.933 21.998 5.956-.895c.078 4.087 1.013 5.606 2.765 5.606 1.44 0 1.752-1.207 1.752-2.297 0-2.609-1.324-4.166-3.465-5.996l-2.726-2.375c-2.414-2.024-4.244-4.4-4.244-8.215 0-5.334 3.388-8.254 8.838-8.254 6.736 0 7.709 5.257 7.826 8.955l-5.996.74c-.077-2.803-.272-4.594-2.063-4.594-1.285 0-1.869 1.362-1.869 2.452 0 2.336 1.207 3.582 3.037 5.179l2.609 2.296c2.725 2.337 4.905 5.1 4.905 9.461 0 4.478-3.231 7.943-8.254 7.943-5.956 0-8.838-2.998-9.071-10.006Zm-19.583-21.998h4.905l6.463 15.185V13.098h5.762v31.536h-4.71l-6.463-16.351v16.351h-5.957V13.098Zm-31.224 0h6.969v31.536h-6.969V13.098Zm-19.194 21.998 5.957-.895c.078 4.087 1.012 5.606 2.764 5.606 1.44 0 1.752-1.207 1.752-2.297 0-2.609-1.324-4.166-3.465-5.996l-2.725-2.375c-2.414-2.024-4.244-4.4-4.244-8.215 0-5.334 3.387-8.254 8.838-8.254 6.735 0 7.708 5.257 7.825 8.955l-5.996.74c-.077-2.803-.272-4.594-2.063-4.594-1.285 0-1.868 1.362-1.868 2.452 0 2.336 1.206 3.582 3.036 5.179l2.609 2.296c2.725 2.337 4.905 5.1 4.905 9.461 0 4.478-3.231 7.943-8.254 7.943-5.957 0-8.838-2.998-9.071-10.006ZM86.328 13.098H100.5v4.75h-7.203v7.826h5.49v4.828h-5.49v9.422h7.281v4.71h-14.25V13.098ZM73.13 39.807c3.153 0 3.348-1.363 3.348-4.205V21.86c0-2.765-.311-3.894-3.387-3.894H72.04v21.842h1.09Zm-8.06-26.709h7.982c8.215 0 10.59 2.96 10.59 9.968v11.446c0 7.085-2.375 10.122-10.512 10.122h-8.06V13.098Z" fill="#63051F"/>
  <path d="M57.819 0H0v57.819h57.819V0Z" fill="#EE2725"/>
  <path d="M49.32 27.53c-1.353-1.359-3.028-1.94-5.533-1.94h-5.37c-.982 0-1.517-.516-1.509-1.506v-2.908c-.007-.99.525-1.505 1.509-1.504h12.15V13.1H37.743c-4.75-.05-7.49 2.661-7.427 7.423v4.273c0 2.419.534 3.942 1.843 5.255 1.3 1.305 2.88 1.863 5.284 1.863h5.645c.984.001 1.517.517 1.51 1.507v3.15c0 .503-.122.86-.383 1.123-.27.27-.605.386-1.122.386H26.034l-3.475-5.704c3.911-.047 6.248-2.333 6.17-6.338v-5.493c0-2.528-.557-4.118-1.921-5.488-1.354-1.359-3-1.957-5.506-1.957H6.756v31.534h6.665V19.672h7.21c.503 0 .86.121 1.122.383.272.269.387.605.387 1.122V25.2c.008.99-.524 1.505-1.509 1.505-2.072.047-4.1-.386-5.318 1.56-.909 1.415-.581 3.434.295 4.834.936 1.666 6.016 10.692 6.016 10.692.301.535.866.843 1.549.843h20.642c4.762.063 7.472-2.68 7.427-7.428v-4.189c0-2.528-.557-4.118-1.922-5.487Z" fill="#fff"/>
  <path d="m300 27.356-.021-.002.021-.002h-.041l-20.072-1.56 7.843-5.74-9.786 3.214 4.655-10.2-14.15 14.288h-.001.001l14.15 14.288-4.655-10.2 9.786 3.213-7.843-5.739 20.072-1.56H300Z" fill="#EE2725"/>
</svg>
