<svg xmlns="http://www.w3.org/2000/svg" height="800" width="1200" viewBox="-15 -20.775825 130 124.65495"><defs><clipPath id="a" clipPathUnits="userSpaceOnUse"><path d="M0 0h1247.244v807.874H0z"/></clipPath></defs><g clip-path="url(#a)" transform="matrix(1.43447 0 0 -1.43447 -1652.9199 119.2759)"><path d="M1159.6295 83.1496h55.298c4.019 0 7.068-3.188 7.068-7.068v-43.658c0-3.603-2.909-7.207-7.068-7.207h-55.577c-3.463 0-7.067 3.049-7.067 7.207v43.519c0 4.019 2.633 7.207 7.346 7.207" fill="#fff"/><path d="M1214.7897 28.5245c2.193 0 3.97 1.776 3.97 3.968v43.519c0 2.193-1.777 3.968-3.97 3.968h-55.16c-2.193 0-3.97-1.775-3.97-3.968v-43.519c0-2.192 1.777-3.968 3.97-3.968z" fill="#e2001a"/><path d="M1217.5343 76.0118c0 1.516-1.228 2.744-2.745 2.744h-55.16c-1.515 0-2.745-1.228-2.745-2.744v-43.52c0-1.515 1.23-2.743 2.745-2.743h55.16c1.517 0 2.745 1.228 2.745 2.743z" fill="#fff"/><path d="M1201.5529 65.4122l10.748-.008c1.523 0 2.008 1.247 2.008 2.219 0 .257.001 5.065.001 5.681 0 .972-.486 2.219-2.009 2.219l-18.786.007c-2.495 0-3.95-1.871-3.95-3.88l.001-17.431c0-2.564 2.217-4.505 4.989-4.78l7.552-.348c1.665-.069 2.218-.97 2.218-2.079l-.002-1.802c-.044-1.186-.871-1.906-2.353-1.906h-12.474c-1.732 0-2.009.83-2.288 1.593l-1.523 4.089c-.277.831-1.109 1.594-2.079 1.663-1.316.207-1.663.346-1.663.969 0 .833.415.902 1.524 1.04 1.941.208 3.465 1.732 3.465 3.811v15.177c0 2.01-1.455 3.881-3.95 3.881h-20.651c-1.525 0-2.217-.763-2.217-2.219v-38.113c0-1.524 1.246-2.009 2.217-2.009.257 0 5.066-.001 5.683-.001.97 0 2.217.486 2.217 2.01v30.007h4.712c1.318 0 2.148-.693 2.148-1.941v-4.365c0-1.18-.552-2.288-1.87-2.288h-1.387c-1.592 0-2.285-.624-2.285-2.01v-5.335c0-1.386.9-2.01 2.147-2.01 2.079 0 2.357-.693 2.703-1.94l2.495-10.186c.416-1.664 1.316-1.942 2.772-1.942l28.689.001c2.495 0 3.95 1.872 3.95 3.879v17.363c0 2.286-1.871 4.572-4.296 4.711l-7.971.485c-1.662.069-2.564.762-2.564 1.802v2.115c0 .971.625 1.871 2.079 1.871" fill="#e2001a"/></g></svg>